<?xml version="1.0" encoding="UTF-8"?>
<svg id="_レイヤー_1のコピー_2" data-name="レイヤー 1のコピー 2" xmlns="http://www.w3.org/2000/svg" viewBox="0 0 80.43 346.97">
  <defs>
    <style>
      .cls-1 {
        fill: #231815;
      }

      .cls-2 {
        fill: none;
        stroke: #231815;
        stroke-miterlimit: 10;
        stroke-width: 3px;
      }
    </style>
  </defs>
  <g>
    <path class="cls-1" d="M37.35,24.27c2.81-3.11,3.11-6.01,3.11-7.6,0-6.09-4.49-10.21-10.67-10.21s-10.5,4.28-10.5,10.25c0,3.36,1.72,5.97,3.23,7.56h-5.08c-1.68-2.81-2.1-5.75-2.1-7.69,0-5.08,2.31-8.28,3.86-9.91,3.07-3.28,6.64-4.5,10.59-4.5,5.17,0,8.74,2.14,10.96,4.5,2.73,2.9,3.65,6.26,3.65,10.12,0,2.56-.46,5.04-2.02,7.48h-5.04Z"/>
    <path class="cls-1" d="M24.7,46.78c-5.42,0-9.37-4.12-9.37-9.45s3.95-9.45,9.37-9.45,9.33,4.12,9.33,9.45-3.86,9.45-9.33,9.45ZM24.66,42.58c4.03,0,5.67-2.65,5.67-5.25s-1.64-5.25-5.67-5.25c-3.4,0-5.63,2.02-5.63,5.25s2.23,5.25,5.63,5.25Z"/>
    <path class="cls-1" d="M33.56,51.02v4.12h-1.64c1.97,1.76,2.1,3.78,2.1,4.79,0,3.28-1.64,4.66-2.39,5.21-.97.67-2.18,1.09-4.92,1.09h-10.84v-4.12h9.83c4.5,0,4.62-1.68,4.62-3.23,0-1.85-.25-3.74-5.97-3.74h-8.49v-4.12h17.69Z"/>
    <path class="cls-1" d="M29.78,75.68h-13.9v-4.12h13.9v-1.72h3.78v1.72h6.47v4.12h-6.47v3.15h-3.78v-3.15Z"/>
    <path class="cls-1" d="M33.56,94.54v4.12H15.88v-4.12h1.85c-2.1-1.81-2.39-4.03-2.39-5.29,0-5.46,4.54-8.57,9.41-8.57,5.75,0,9.28,3.95,9.28,8.61,0,1.3-.34,3.57-2.52,5.25h2.06ZM24.66,84.87c-3.07,0-5.63,1.93-5.63,4.92,0,2.6,1.89,5,5.59,5s5.71-2.39,5.71-5c0-2.98-2.52-4.92-5.67-4.92Z"/>
    <path class="cls-1" d="M28.15,117.55c1.85-1.89,2.18-3.74,2.18-5,0-1.93-.8-3.15-1.55-3.91-.76-.76-2.1-1.51-4.07-1.51s-3.44.8-4.24,1.6c-.88.92-1.43,2.23-1.43,3.74,0,1.68.67,3.66,2.27,5.08h-4.58c-.63-1.01-1.39-2.65-1.39-5.38,0-2.94.84-5.04,2.6-6.72,1.3-1.26,3.4-2.52,6.64-2.52s5.55,1.39,6.85,2.69c1.39,1.39,2.6,3.61,2.6,7.1,0,1.34-.21,2.94-1.26,4.83h-4.62Z"/>
    <path class="cls-1" d="M29.78,125.74h-13.9v-4.12h13.9v-1.72h3.78v1.72h6.47v4.12h-6.47v3.15h-3.78v-3.15Z"/>
  </g>
  <line class="cls-2" x1="78.93" x2="78.93" y2="230.26"/>
</svg>