<?xml version="1.0" encoding="UTF-8"?>
<svg id="_レイヤー_1" data-name="レイヤー 1" xmlns="http://www.w3.org/2000/svg" viewBox="0 0 80.43 346.97">
  <defs>
    <style>
      .cls-1 {
        fill: #231815;
      }

      .cls-2 {
        fill: none;
        stroke: #231815;
        stroke-miterlimit: 10;
        stroke-width: 3px;
      }
    </style>
  </defs>
  <g>
    <path class="cls-1" d="M43.9,9.7c0,1.72-.17,4.12-1.51,6.13-1.55,2.35-4.24,3.49-6.81,3.49-1.64,0-4.16-.42-6.13-2.73-1.89-2.23-2.18-4.79-2.18-6.85v-1.93h-11.38V3.52h28.02v6.17ZM31.21,7.81v1.93c0,3.7,1.81,5.46,4.41,5.46,1.55,0,4.33-.63,4.33-5.5v-1.89h-8.74Z"/>
    <path class="cls-1" d="M33.56,22.93v4.12h-1.6c.55.46,1.13,1.13,1.47,1.72.46.8.59,1.6.59,2.52,0,1.01-.17,2.1-.84,3.23l-3.74-1.68c.59-.92.63-1.68.63-2.1,0-.88-.13-1.76-.97-2.56-1.22-1.13-2.9-1.13-4.07-1.13h-9.16v-4.12h17.69Z"/>
    <path class="cls-1" d="M24.7,54.85c-5.42,0-9.37-4.12-9.37-9.45s3.95-9.45,9.37-9.45,9.33,4.12,9.33,9.45-3.86,9.45-9.33,9.45ZM24.66,50.65c4.03,0,5.67-2.65,5.67-5.25s-1.64-5.25-5.67-5.25c-3.4,0-5.63,2.02-5.63,5.25s2.23,5.25,5.63,5.25Z"/>
    <path class="cls-1" d="M29.78,63.33h-13.9v-4.12h13.9v-1.43h3.78v1.43h5.88c1.68,0,3.32.04,4.83,1.09,1.3.92,2.73,2.73,2.73,6.13,0,4.07-1.76,5.5-2.73,6.13-1.68,1.05-3.15,1.09-4.83,1.09h-1.22v-4.12h.76c.76,0,1.81.04,2.73-.5,1.05-.63,1.34-1.6,1.34-2.6,0-1.39-.59-2.18-1.34-2.6-.34-.21-1.05-.5-2.73-.5h-5.42v4.45h-3.78v-4.45ZM33.56,73.66H15.88v-4.12h17.69v4.12Z"/>
    <path class="cls-1" d="M46.5,82.98H15.88v-4.12h30.62v4.12Z"/>
    <path class="cls-1" d="M19.91,104.03c-1.34-.76-2.52-1.85-3.23-2.98-.92-1.43-1.34-3.32-1.34-5.21,0-2.35.59-4.29,2.27-5.97,1.68-1.68,4.12-2.6,6.76-2.6s5.38.97,7.27,2.81c1.47,1.47,2.39,3.4,2.39,5.92,0,2.81-1.22,4.62-2.31,5.67-2.35,2.27-5.63,2.48-7.48,2.48h-.5v-12.69c-1.26.08-2.69.63-3.57,1.51-.97.97-1.13,2.14-1.13,3.15,0,1.13.25,1.97.88,2.81.55.71,1.26,1.26,1.93,1.64l-1.93,3.45ZM27.1,99.95c.97-.17,1.81-.63,2.39-1.26.5-.55,1.01-1.43,1.01-2.77,0-1.43-.59-2.35-1.13-2.9-.55-.59-1.39-1.05-2.27-1.26v8.19Z"/>
  </g>
  <line class="cls-2" x1="78.93" x2="78.93" y2="346.97"/>
</svg>