<?xml version="1.0" encoding="UTF-8"?>
<svg id="_レイヤー_1のコピー" data-name="レイヤー 1のコピー" xmlns="http://www.w3.org/2000/svg" viewBox="0 0 77.51 346.97">
  <defs>
    <style>
      .cls-1 {
        fill: #231815;
      }

      .cls-2 {
        fill: none;
        stroke: #231815;
        stroke-miterlimit: 10;
        stroke-width: 3px;
      }
    </style>
  </defs>
  <g>
    <path class="cls-1" d="M40.37,12.88H12.96v-4.9h27.41V.64h4.61v19.59h-4.61v-7.34Z"/>
    <path class="cls-1" d="M17.57,41.78c-1.54-.86-2.88-2.11-3.7-3.41-1.06-1.63-1.54-3.79-1.54-5.95,0-2.69.67-4.9,2.59-6.82,1.92-1.92,4.7-2.98,7.73-2.98s6.14,1.1,8.3,3.22c1.68,1.68,2.74,3.89,2.74,6.77,0,3.22-1.39,5.28-2.64,6.48-2.69,2.59-6.43,2.83-8.54,2.83h-.58v-14.5c-1.44.1-3.07.72-4.08,1.73-1.1,1.1-1.3,2.45-1.3,3.6,0,1.3.29,2.26,1.01,3.22.62.82,1.44,1.44,2.21,1.87l-2.21,3.94ZM25.78,37.12c1.1-.19,2.06-.72,2.74-1.44.58-.62,1.15-1.63,1.15-3.17,0-1.63-.67-2.69-1.3-3.31-.62-.67-1.58-1.2-2.59-1.44v9.36Z"/>
    <path class="cls-1" d="M26.98,62.47c2.11-2.16,2.5-4.27,2.5-5.71,0-2.21-.91-3.6-1.78-4.46s-2.4-1.73-4.66-1.73-3.94.91-4.85,1.82c-1.01,1.06-1.63,2.54-1.63,4.27,0,1.92.77,4.18,2.59,5.81h-5.23c-.72-1.15-1.58-3.02-1.58-6.14,0-3.36.96-5.76,2.98-7.68,1.49-1.44,3.89-2.88,7.58-2.88s6.34,1.58,7.82,3.07c1.58,1.58,2.98,4.13,2.98,8.11,0,1.54-.24,3.36-1.44,5.52h-5.28Z"/>
    <path class="cls-1" d="M47.96,66.98v4.7h-16.51c2.06,2.02,2.26,4.23,2.26,5.42,0,3.7-1.92,5.38-2.74,5.95-1.82,1.25-4.18,1.3-5.62,1.3h-12.39v-4.7h11.95c1.2,0,2.5,0,3.5-.91.58-.53,1.06-1.44,1.06-2.64,0-1.58-.77-2.83-1.68-3.46-.96-.67-2.5-.96-5.09-.96h-9.74v-4.7h35Z"/>
  </g>
  <line class="cls-2" x1="76.01" x2="76.01" y2="230.26"/>
</svg>