<?xml version="1.0" encoding="UTF-8"?>
<svg id="_レイヤー_1のコピー" data-name="レイヤー 1のコピー" xmlns="http://www.w3.org/2000/svg" viewBox="0 0 80.43 346.97">
  <defs>
    <style>
      .cls-1 {
        fill: #231815;
      }

      .cls-2 {
        fill: none;
        stroke: #231815;
        stroke-miterlimit: 10;
        stroke-width: 3px;
      }
    </style>
  </defs>
  <g>
    <path class="cls-1" d="M39.87,11.29H15.88v-4.28h23.99V.58h4.03v17.14h-4.03v-6.43Z"/>
    <path class="cls-1" d="M19.91,36.58c-1.34-.76-2.52-1.85-3.23-2.98-.92-1.43-1.34-3.32-1.34-5.21,0-2.35.59-4.29,2.27-5.97,1.68-1.68,4.12-2.6,6.76-2.6s5.38.97,7.27,2.81c1.47,1.47,2.39,3.4,2.39,5.92,0,2.81-1.22,4.62-2.31,5.67-2.35,2.27-5.63,2.48-7.48,2.48h-.5v-12.69c-1.26.08-2.69.63-3.57,1.51-.97.97-1.13,2.14-1.13,3.15,0,1.13.25,1.97.88,2.81.55.71,1.26,1.26,1.93,1.64l-1.93,3.44ZM27.1,32.5c.97-.17,1.81-.63,2.39-1.26.5-.55,1.01-1.43,1.01-2.77,0-1.43-.59-2.35-1.13-2.9-.55-.59-1.39-1.05-2.27-1.26v8.19Z"/>
    <path class="cls-1" d="M28.15,54.68c1.85-1.89,2.18-3.74,2.18-5,0-1.93-.8-3.15-1.55-3.91s-2.1-1.51-4.07-1.51-3.44.8-4.24,1.6c-.88.92-1.43,2.23-1.43,3.74,0,1.68.67,3.65,2.27,5.08h-4.58c-.63-1.01-1.39-2.65-1.39-5.38,0-2.94.84-5.04,2.6-6.72,1.3-1.26,3.4-2.52,6.64-2.52s5.55,1.39,6.85,2.69c1.39,1.39,2.6,3.61,2.6,7.1,0,1.34-.21,2.94-1.26,4.83h-4.62Z"/>
    <path class="cls-1" d="M46.5,58.63v4.12h-14.45c1.81,1.76,1.97,3.7,1.97,4.75,0,3.23-1.68,4.7-2.39,5.21-1.6,1.09-3.65,1.13-4.92,1.13h-10.84v-4.12h10.46c1.05,0,2.18,0,3.07-.8.5-.46.92-1.26.92-2.31,0-1.39-.67-2.48-1.47-3.02-.84-.59-2.18-.84-4.45-.84h-8.53v-4.12h30.62Z"/>
  </g>
  <line class="cls-2" x1="78.93" x2="78.93" y2="230.26"/>
</svg>